<?xml version="1.0" standalone="no"?>
<!DOCTYPE svg PUBLIC "-//W3C//DTD SVG 20010904//EN"
 "http://www.w3.org/TR/2001/REC-SVG-20010904/DTD/svg10.dtd">
<svg version="1.0" xmlns="http://www.w3.org/2000/svg"
 width="720.000000pt" height="720.000000pt" viewBox="0 0 720.000000 720.000000"
 preserveAspectRatio="xMidYMid meet">
<metadata>
Created by potrace 1.14, written by Peter Selinger 2001-2017
</metadata>
<g transform="translate(0.000000,720.000000) scale(0.100000,-0.100000)"
fill="#000000" stroke="none">
<path d="M2929 6172 c-25 -15 -95 -55 -155 -90 -60 -35 -116 -67 -124 -73 -53
-32 -381 -219 -385 -219 -3 0 -11 -5 -18 -10 -18 -16 -979 -570 -988 -570 -4
0 -14 -6 -21 -13 -17 -16 -158 -97 -169 -97 -5 0 -9 -4 -9 -10 0 -5 -4 -10 -8
-10 -7 0 -104 -53 -222 -122 -140 -82 -301 -174 -330 -191 -60 -33 -294 -169
-320 -186 -23 -14 -57 -33 -121 -67 -15 -8 -32 -27 -38 -42 -8 -20 -11 -174
-9 -545 l3 -518 35 -29 c19 -16 39 -30 43 -30 4 0 76 -40 160 -89 183 -107
219 -128 322 -186 44 -26 96 -55 115 -67 19 -11 98 -57 175 -102 77 -44 149
-86 160 -93 11 -7 27 -15 35 -19 8 -4 74 -42 145 -84 184 -108 587 -340 648
-373 29 -16 63 -36 77 -45 14 -9 34 -22 45 -28 62 -34 417 -239 650 -375 83
-48 166 -96 185 -106 19 -11 70 -41 113 -67 43 -25 81 -46 83 -46 2 0 23 -12
47 -27 23 -15 45 -26 49 -25 3 1 12 -5 18 -13 7 -8 18 -15 25 -15 8 0 15 -3
17 -7 2 -5 19 -16 38 -27 19 -10 90 -50 158 -90 67 -39 130 -75 140 -81 32
-19 137 -80 157 -92 11 -7 27 -15 35 -19 8 -4 107 -61 220 -127 303 -176 297
-174 355 -136 17 10 36 22 44 26 19 8 281 159 301 173 8 5 38 22 65 37 28 15
58 32 67 38 26 15 198 115 238 138 19 10 71 40 115 66 44 26 87 50 95 54 8 4
29 16 45 27 17 11 44 27 60 35 17 9 44 24 60 35 17 11 37 23 45 27 25 12 424
244 436 254 6 5 14 6 17 2 4 -3 7 -1 7 5 0 7 4 12 8 12 5 0 160 88 345 195
185 107 341 195 346 195 5 0 11 3 13 8 2 6 171 106 263 156 11 6 22 13 25 16
6 6 86 50 117 65 13 5 23 13 23 18 0 4 4 7 9 7 24 0 170 95 180 117 8 16 11
186 11 529 0 413 -3 510 -14 532 -10 19 -65 56 -177 121 -90 52 -173 100 -184
105 -11 6 -22 13 -25 16 -4 4 -29 18 -115 64 -11 6 -22 14 -25 17 -3 3 -36 23
-75 44 -38 21 -82 46 -97 56 -14 11 -28 19 -31 19 -2 0 -64 35 -138 78 -74 43
-154 90 -179 104 -74 41 -105 60 -325 188 -115 67 -235 136 -265 153 -30 17
-89 50 -130 74 -41 24 -84 49 -95 56 -11 6 -245 141 -520 300 -275 160 -525
304 -555 320 -30 17 -72 41 -93 54 -21 13 -55 33 -75 45 -20 11 -239 138 -487
281 -551 318 -567 327 -596 326 -13 0 -45 -13 -70 -27z m454 -384 c130 -76
239 -138 242 -138 2 0 28 -15 57 -33 29 -19 60 -37 68 -41 8 -4 24 -12 35 -19
24 -14 166 -96 215 -125 19 -10 76 -43 125 -72 50 -29 99 -58 110 -64 33 -18
289 -166 305 -176 19 -12 112 -66 170 -98 67 -37 80 -46 80 -53 0 -4 -42 -30
-92 -59 -118 -68 -302 -174 -491 -284 -81 -47 -152 -86 -157 -86 -6 0 -10 -4
-10 -10 0 -5 -4 -10 -9 -10 -5 0 -64 -32 -132 -72 -68 -39 -135 -78 -149 -85
-14 -8 -40 -23 -58 -34 l-33 -19 6 58 c3 31 8 77 11 102 26 223 34 442 20 579
-32 330 -210 507 -501 498 -88 -3 -123 -17 -172 -67 -42 -43 -60 -139 -42
-220 4 -19 10 -46 13 -60 25 -132 169 -412 352 -687 57 -85 104 -157 104 -160
0 -3 -10 1 -22 9 -13 8 -50 30 -83 48 -56 31 -395 224 -550 312 -38 22 -83 48
-100 58 -16 9 -104 59 -195 110 -91 51 -182 104 -202 116 -21 13 -39 24 -41
24 -2 0 -44 23 -93 51 -49 29 -114 65 -144 82 -30 16 -59 33 -65 37 -10 7
-108 62 -153 86 -25 12 -23 14 23 40 11 6 82 48 159 92 76 45 142 82 147 82 5
0 9 5 9 10 0 6 5 10 10 10 6 0 95 49 198 109 103 60 203 118 222 129 19 10 75
43 123 71 49 28 93 51 98 51 5 0 9 5 9 10 0 6 4 10 9 10 5 0 50 24 101 54 l92
54 72 -41 c39 -22 178 -103 309 -179z m-82 -333 c67 -11 141 -48 183 -91 48
-50 100 -159 117 -249 20 -106 18 -369 -5 -580 -2 -16 -7 -64 -11 -105 -4 -41
-9 -77 -12 -80 -9 -9 -142 182 -248 358 -36 59 -70 114 -75 122 -47 73 -163
331 -175 390 -8 37 -19 116 -17 123 1 4 4 15 6 25 13 59 33 79 85 89 14 2 27
5 28 7 4 4 77 -1 124 -9z m-1548 -240 c32 -19 59 -35 61 -35 2 0 95 -52 207
-116 112 -64 224 -128 249 -142 25 -14 186 -106 359 -204 172 -99 331 -189
353 -201 21 -12 47 -26 56 -32 10 -5 65 -37 122 -70 58 -33 107 -63 108 -67 2
-4 9 -8 17 -8 7 0 48 -21 91 -46 131 -78 130 -77 114 -82 -8 -3 -33 -16 -55
-30 -51 -32 -257 -152 -261 -152 -1 0 -55 -31 -120 -70 -64 -38 -118 -70 -120
-70 -2 0 -57 -32 -121 -72 -65 -39 -136 -82 -158 -95 -22 -13 -74 -45 -116
-71 -41 -26 -129 -80 -195 -120 -65 -40 -147 -91 -182 -112 l-64 -40 -46 26
c-99 55 -137 79 -140 86 -2 4 -8 8 -13 8 -13 0 -173 92 -177 102 -2 4 -8 8
-13 8 -7 0 -184 100 -377 213 -26 15 -54 30 -62 34 -8 3 -22 11 -30 18 -8 7
-40 26 -70 42 -30 17 -83 47 -117 67 -34 20 -66 36 -72 36 -6 0 -11 4 -11 8 0
4 -24 20 -52 35 -29 15 -60 32 -68 37 -14 9 -201 118 -280 163 -19 10 -93 53
-163 95 l-128 75 28 17 c44 26 126 72 150 84 13 6 23 14 23 19 0 4 4 7 9 7 5
0 49 23 98 51 48 29 108 63 133 77 25 13 50 28 55 32 9 7 61 37 130 75 11 6
38 22 60 36 22 14 56 33 75 43 19 9 60 32 90 51 30 19 61 34 68 35 6 0 12 4
12 8 0 4 24 20 53 35 28 15 59 32 67 37 25 16 214 126 230 133 8 4 40 23 70
41 30 19 57 35 60 35 3 1 31 -15 63 -34z m3225 -347 c34 -21 67 -38 72 -38 6
0 10 -4 10 -10 0 -5 4 -10 10 -10 5 0 73 -38 152 -84 79 -45 163 -94 188 -108
25 -14 112 -64 193 -112 82 -47 167 -97 190 -110 23 -13 184 -105 357 -206
173 -101 340 -197 370 -213 30 -17 57 -34 58 -39 2 -4 8 -8 13 -8 11 0 318
-176 333 -191 6 -6 5 -9 -4 -9 -7 0 -28 -11 -46 -25 -18 -14 -35 -25 -37 -25
-4 0 -220 -125 -339 -195 -23 -14 -55 -31 -70 -38 -16 -6 -28 -15 -28 -19 0
-4 -4 -8 -10 -8 -5 0 -58 -28 -117 -63 -112 -66 -167 -98 -218 -127 -16 -9
-89 -51 -162 -93 -72 -43 -138 -79 -146 -83 -8 -3 -85 36 -172 86 -86 50 -164
95 -174 100 -18 10 -115 65 -181 104 -25 15 -57 32 -72 39 -16 6 -28 15 -28
19 0 4 -4 8 -9 8 -6 0 -86 43 -178 96 -92 53 -186 106 -208 119 -66 36 -326
186 -380 217 -27 16 -62 34 -77 41 -16 6 -28 15 -28 19 0 4 -6 8 -14 8 -8 0
-21 6 -28 13 -7 6 -32 21 -55 32 -24 11 -43 23 -43 28 0 4 -4 7 -9 7 -5 0 -65
32 -133 71 l-123 71 65 -7 c36 -3 90 -8 120 -11 198 -19 375 -5 465 35 100 45
126 131 71 240 -47 92 -161 181 -233 181 l-28 0 25 20 c14 10 43 28 65 40 22
12 60 33 85 48 25 15 77 45 115 66 39 22 73 44 76 49 3 5 10 8 14 6 4 -1 14 3
24 10 55 39 188 108 201 103 8 -3 43 -23 78 -44z m-599 -409 c43 -24 105 -105
116 -151 13 -51 -26 -85 -116 -105 -45 -9 -307 -9 -389 0 -203 24 -243 31
-247 42 -4 12 196 132 300 180 147 68 257 79 336 34z m-4089 -241 c25 -14 126
-72 225 -130 99 -57 200 -116 225 -130 56 -31 268 -154 460 -266 80 -47 170
-99 200 -115 30 -17 72 -41 92 -54 21 -13 41 -23 46 -23 4 0 13 -5 20 -12 6
-6 41 -28 76 -47 35 -20 134 -76 220 -126 l157 -90 -2 -382 c-1 -211 -4 -383
-6 -383 -7 0 -138 73 -165 92 -14 10 -28 18 -31 18 -3 0 -369 209 -417 239
-21 13 -293 170 -354 204 -28 16 -55 32 -61 37 -5 4 -31 19 -57 34 -27 14 -69
38 -95 52 -27 15 -55 33 -64 40 -9 8 -18 12 -21 9 -3 -3 -11 1 -18 10 -7 8
-19 15 -26 15 -8 0 -14 5 -14 10 0 6 -4 10 -9 10 -5 0 -49 23 -98 51 -48 28
-104 61 -123 71 -19 11 -86 50 -147 86 l-113 65 0 51 c-1 92 -1 620 -1 674 l1
53 28 -19 c15 -10 47 -30 72 -44z m3337 -69 c21 -12 90 -51 153 -87 63 -36
135 -76 160 -90 25 -14 123 -70 219 -125 95 -54 199 -113 230 -130 31 -17 85
-48 120 -69 34 -21 64 -38 66 -38 2 0 58 -31 125 -70 67 -38 126 -70 131 -70
5 0 9 -4 9 -10 0 -5 4 -10 9 -10 7 0 460 -254 734 -413 l69 -39 -34 -19 c-18
-11 -40 -24 -48 -29 -8 -5 -94 -54 -190 -110 -96 -56 -182 -105 -190 -111 -25
-16 -501 -290 -560 -322 -30 -16 -59 -33 -65 -37 -5 -4 -27 -17 -47 -29 -61
-34 -100 -56 -154 -89 -28 -16 -76 -44 -106 -60 l-55 -31 -64 38 c-152 90
-672 391 -864 501 -16 9 -250 144 -520 300 -269 156 -507 293 -527 304 -21 12
-38 24 -38 27 0 5 300 193 388 244 10 6 80 49 157 96 126 77 208 126 315 187
57 32 264 152 280 162 16 10 125 72 180 103 19 11 44 26 55 33 24 17 17 18 62
-7z m3396 -931 c-1 -200 -2 -374 -2 -388 -1 -21 -12 -31 -53 -53 -29 -15 -70
-37 -90 -50 -32 -19 -165 -97 -253 -147 -41 -24 -382 -221 -596 -345 -97 -56
-183 -104 -191 -107 -14 -6 -15 125 -8 722 l0 45 87 50 c48 28 96 54 107 60
12 5 26 13 31 18 11 9 583 339 606 350 8 4 21 11 29 17 28 19 325 190 330 190
3 0 4 -163 3 -362z m-4859 -83 c32 -19 60 -35 62 -35 2 0 32 -17 66 -38 35
-21 83 -50 108 -64 84 -46 385 -221 422 -245 21 -12 40 -23 43 -23 3 0 31 -16
61 -35 30 -19 56 -35 58 -35 3 0 98 -54 213 -121 114 -67 226 -131 248 -144
22 -12 112 -64 200 -115 88 -51 184 -107 213 -124 30 -17 66 -38 80 -46 110
-61 163 -93 169 -103 7 -11 13 -767 6 -767 -7 0 -140 74 -154 86 -8 8 -19 14
-22 14 -4 0 -24 10 -45 23 -20 13 -62 37 -92 54 -30 16 -117 67 -194 112 -76
44 -140 81 -141 81 -2 0 -49 27 -104 60 -56 33 -106 60 -111 60 -6 0 -10 4
-10 9 0 5 -8 11 -17 14 -10 4 -38 18 -63 33 -88 51 -606 351 -650 376 -25 14
-92 53 -148 86 -57 34 -108 62 -113 62 -5 0 -9 5 -9 10 0 6 -5 10 -10 10 -6 0
-39 16 -74 36 l-63 36 1 384 c1 211 4 384 7 384 3 0 31 -16 63 -35z m3576
-327 c4 -254 -3 -735 -10 -742 -9 -9 -19 -15 -96 -59 -27 -15 -56 -32 -64 -37
-15 -10 -611 -354 -689 -398 -24 -13 -104 -60 -178 -103 -75 -43 -137 -79
-139 -79 -3 0 -23 -12 -47 -27 -89 -56 -210 -123 -216 -119 -11 7 -7 754 4
765 10 10 30 21 142 85 58 33 562 326 660 382 47 28 250 144 308 178 27 15
103 59 168 97 65 38 122 69 128 69 5 0 9 5 9 10 0 6 5 10 10 10 6 0 10 -15 10
-32z"/>
</g>
</svg>
