<?xml version="1.0" standalone="no"?>
<!DOCTYPE svg PUBLIC "-//W3C//DTD SVG 20010904//EN"
 "http://www.w3.org/TR/2001/REC-SVG-20010904/DTD/svg10.dtd">
<svg version="1.0" xmlns="http://www.w3.org/2000/svg"
 width="700.000000pt" height="700.000000pt" viewBox="0 0 700.000000 700.000000"
 preserveAspectRatio="xMidYMid meet">
<metadata>
Created by potrace 1.14, written by Peter Selinger 2001-2017
</metadata>
<g transform="translate(0.000000,700.000000) scale(0.100000,-0.100000)"
fill="#000000" stroke="none">
<path d="M2893 5578 c-21 -11 -132 -76 -248 -143 -115 -67 -316 -183 -445
-257 -129 -74 -305 -176 -390 -225 -85 -49 -319 -184 -520 -300 -201 -116
-491 -283 -645 -372 -154 -89 -290 -173 -302 -187 l-23 -25 0 -446 c0 -480 0
-483 53 -509 12 -6 67 -37 122 -69 94 -54 1172 -677 1460 -843 72 -41 144 -83
160 -93 17 -10 46 -26 65 -37 19 -11 134 -77 255 -147 121 -70 236 -137 255
-147 55 -32 479 -276 776 -449 150 -86 294 -169 320 -184 27 -15 80 -45 118
-68 38 -22 82 -40 97 -39 15 0 131 61 275 145 137 79 341 197 454 262 455 263
587 338 620 357 19 11 150 87 290 168 140 81 271 156 290 167 71 40 379 218
520 300 80 47 151 92 158 101 9 12 12 122 12 472 0 421 -1 459 -17 477 -15 17
-108 73 -267 162 -37 21 -274 159 -416 241 -36 21 -281 163 -545 315 -264 152
-552 319 -640 370 -88 51 -182 105 -210 120 -27 15 -54 31 -60 35 -5 4 -30 19
-55 32 -25 14 -218 126 -430 248 -212 123 -403 233 -425 246 -22 12 -161 92
-309 178 -148 86 -279 158 -292 160 -12 3 -40 -5 -61 -16z m140 -202 c23 -12
332 -191 687 -396 355 -205 661 -382 680 -393 19 -11 52 -29 73 -40 20 -12 37
-24 37 -27 0 -4 -84 -56 -187 -115 -356 -206 -638 -368 -683 -393 -25 -14 -62
-36 -82 -49 l-38 -23 6 77 c3 43 8 81 10 84 8 13 19 234 18 364 -3 338 -103
503 -333 550 -123 26 -218 4 -267 -61 -26 -33 -29 -47 -31 -113 -4 -158 108
-405 337 -746 82 -122 89 -134 69 -118 -11 9 -211 123 -569 326 -38 21 -725
413 -800 456 -77 44 -85 49 -80 54 4 3 683 395 770 445 19 10 94 53 165 95
123 72 131 75 153 61 13 -8 42 -25 65 -38z m227 -449 c149 -49 224 -209 223
-477 0 -56 -12 -261 -17 -286 -2 -11 -7 -55 -11 -99 -4 -44 -9 -82 -11 -84
-17 -17 -252 346 -348 536 -116 231 -134 390 -48 422 42 16 145 10 212 -12z
m-1144 -345 c165 -93 319 -181 344 -195 25 -14 242 -138 484 -275 l438 -250
-73 -42 c-41 -24 -111 -65 -157 -91 -45 -27 -85 -49 -88 -49 -3 0 -17 -9 -32
-19 -15 -10 -96 -59 -180 -107 -85 -49 -165 -96 -178 -104 -187 -116 -506
-311 -516 -315 -7 -3 -60 22 -118 56 -58 34 -125 73 -150 87 -44 24 -289 165
-420 242 -112 65 -365 211 -615 355 -132 76 -253 145 -269 155 l-29 18 24 15
c13 8 202 117 419 242 217 126 483 279 590 342 107 62 202 112 211 109 9 -2
151 -80 315 -174z m2663 -213 c97 -56 259 -150 361 -209 102 -59 336 -194 520
-300 184 -106 376 -217 425 -246 104 -60 157 -91 237 -137 32 -17 58 -34 58
-37 0 -3 -51 -35 -112 -70 -62 -35 -295 -169 -518 -298 l-405 -234 -55 28
c-30 15 -83 45 -118 66 -34 21 -64 38 -66 38 -4 0 -135 75 -176 100 -8 5 -33
19 -55 31 -38 20 -196 111 -420 239 -55 32 -127 73 -160 91 -33 17 -72 40 -87
51 -14 10 -29 18 -33 18 -4 0 -41 20 -82 45 -40 25 -75 45 -77 45 -2 0 -69 38
-149 84 -80 46 -153 86 -161 89 -9 4 -16 11 -16 17 0 6 3 9 8 7 13 -8 144 -19
263 -22 207 -6 336 35 360 114 16 53 5 99 -37 163 -42 63 -91 101 -158 120
l-49 15 72 41 c40 23 77 42 82 42 5 0 9 5 9 10 0 6 5 10 10 10 6 0 84 43 173
95 89 52 166 95 171 95 5 0 88 -46 185 -101z m-620 -302 c41 -27 77 -77 91
-127 14 -49 -26 -81 -121 -95 -90 -14 -355 0 -490 25 -28 6 -54 10 -58 10 -11
1 115 78 205 126 173 93 295 113 373 61z m-3445 -291 c673 -389 1267 -732
1310 -756 l50 -28 -3 -333 c-1 -183 -4 -335 -5 -337 -2 -2 -26 10 -52 26 -43
26 -789 457 -869 502 -111 63 -660 381 -664 385 -5 6 -8 675 -2 675 2 0 107
-60 235 -134z m3132 -177 c214 -122 475 -270 579 -329 105 -59 303 -172 440
-250 138 -79 275 -156 305 -173 104 -57 106 -47 -27 -125 -65 -38 -179 -104
-253 -147 -74 -43 -209 -121 -300 -173 -91 -52 -261 -151 -378 -218 l-214
-124 -236 137 c-130 75 -363 209 -517 298 -350 203 -780 451 -905 522 -52 30
-99 58 -103 62 -4 4 97 72 225 151 273 168 507 310 513 310 2 0 36 19 77 43
40 24 93 55 118 69 25 14 99 57 165 96 66 39 121 71 121 72 1 0 176 -99 390
-221z m2619 -635 l0 -336 -115 -67 c-123 -73 -820 -475 -883 -510 -21 -11 -41
-21 -45 -21 -4 0 -6 150 -4 333 2 298 4 333 20 345 9 7 127 76 262 154 135 78
360 208 500 290 140 81 257 148 260 148 3 0 5 -151 5 -336z m-4071 -158 c127
-74 359 -208 516 -298 255 -147 437 -252 480 -278 27 -16 263 -152 310 -178
25 -14 77 -44 115 -67 39 -23 78 -44 88 -48 16 -6 17 -32 17 -347 l0 -341 -57
32 c-32 18 -62 35 -68 40 -5 4 -28 17 -50 29 -22 13 -58 33 -80 45 -22 13
-123 71 -225 130 -102 59 -205 119 -230 133 -25 13 -49 28 -55 32 -5 4 -31 19
-57 33 -25 14 -160 92 -300 173 -139 81 -278 161 -309 178 -30 17 -120 69
-200 115 l-144 84 2 166 c1 91 2 241 3 334 0 92 3 167 6 167 4 0 111 -60 238
-134z m2949 -318 c-1 -90 -2 -242 -3 -338 l-1 -175 -197 -113 c-108 -62 -271
-156 -362 -208 -91 -53 -183 -106 -205 -119 -70 -39 -307 -176 -393 -227 -46
-26 -88 -49 -95 -51 -7 -1 -11 93 -11 332 -1 323 0 334 19 346 11 7 90 53 175
102 345 199 418 241 730 423 179 104 330 189 335 189 6 1 9 -58 8 -161z"/>
</g>
</svg>
